<svg width="896" height="789" viewBox="0 0 896 789" fill="none" xmlns="http://www.w3.org/2000/svg">
<g clip-path="url(#clip0_16_193)">
<path d="M628.8 786.337C627.862 787.232 626.887 788.116 625.901 789H513.386C512.461 788.138 511.549 787.254 510.636 786.337C510.599 786.303 510.562 786.259 510.525 786.225C498.301 773.939 490.605 756.08 485.807 737.248C485.498 736.107 485.227 734.954 484.956 733.791C483.698 728.498 482.674 723.149 481.835 717.846C481.687 716.928 481.539 716.01 481.416 715.093C480.281 707.473 479.516 699.976 479.023 692.937C478.961 692.031 478.899 691.147 478.838 690.263C477.934 676.251 477.926 662.203 478.813 648.19C478.813 648.19 478.961 648.19 479.245 648.202C480.071 648.235 482.057 648.313 484.98 648.47C493.034 648.918 508.231 650.037 526.103 652.677C527.078 652.823 528.065 652.979 529.051 653.136C544.168 655.402 559.08 658.678 573.665 662.938C574.578 663.218 575.478 663.498 576.391 663.777L576.403 663.833L587.59 714.757L592.228 669.428C595.916 670.939 599.506 672.55 602.947 674.273C603.909 674.754 604.846 675.236 605.771 675.728C613.639 679.772 620.78 684.881 626.95 690.879C663.644 727.771 655.787 760.746 628.8 786.337Z" fill="#F2F2F2"/>
<path d="M581.78 721.764L583.731 723.725C606.277 746.616 619.733 767.865 623.878 787.191C623.944 787.472 623.99 787.752 624.055 788.032L622.613 788.28L621.223 788.503C616.992 767.432 601.24 745.651 581.58 725.68C580.953 725.03 580.317 724.372 579.659 723.73C571.254 715.342 562.218 707.296 553.081 699.772C552.379 699.184 551.658 698.595 550.936 698.006C538.819 688.132 526.628 679.198 515.757 671.668C514.991 671.133 514.215 670.606 513.448 670.089C494.989 657.412 480.667 649.009 477.475 647.167C477.09 646.936 476.872 646.815 476.823 646.785L477.578 645.691L477.579 645.672L478.346 644.569C478.395 644.599 479.127 645.003 480.45 645.787C485.419 648.692 498.775 656.69 515.389 668.059C516.135 668.575 516.912 669.102 517.677 669.637C526.507 675.74 536.164 682.732 545.916 690.386C548.369 692.305 550.761 694.221 553.092 696.134C553.825 696.714 554.547 697.303 555.248 697.891C565.127 706.023 573.971 713.981 581.78 721.764Z" fill="white"/>
<path d="M527.164 650.507C526.831 651.234 526.473 651.961 526.103 652.677C523.286 658.208 519.682 663.381 515.385 668.063C514.756 668.734 514.114 669.417 513.448 670.088C511.647 671.89 509.731 673.632 507.7 675.314C499.39 682.139 489.541 687.24 478.838 690.263C478.492 690.364 478.16 690.465 477.814 690.554C477.875 691.438 477.937 692.311 477.999 693.217C478.345 693.128 478.678 693.038 479.023 692.937C490.379 689.831 500.832 684.473 509.624 677.25C511.775 675.487 513.821 673.624 515.755 671.666C516.42 671.006 517.062 670.323 517.679 669.641C522.275 664.631 526.1 659.079 529.051 653.136C529.397 652.42 529.742 651.704 530.075 650.976C529.089 650.82 528.114 650.663 527.164 650.507Z" fill="white"/>
<path d="M574.171 660.958C574.022 661.618 573.85 662.278 573.665 662.938C570.321 675.517 563.199 687.009 553.091 696.138C552.388 696.776 551.672 697.402 550.933 698.006C550.723 698.197 550.488 698.398 550.267 698.577C541.071 706.108 530.025 711.536 518.049 714.408C506.072 717.281 493.512 717.516 481.416 715.093C481.132 715.048 480.836 714.981 480.552 714.925C480.7 715.843 480.836 716.771 480.996 717.689C481.28 717.745 481.552 717.801 481.835 717.845C494.239 720.173 507.072 719.817 519.296 716.806C531.519 713.795 542.789 708.213 552.19 700.513C552.487 700.267 552.795 700.032 553.079 699.774C553.819 699.148 554.534 698.521 555.25 697.894C565.594 688.504 572.909 676.725 576.403 663.833C576.588 663.162 576.761 662.491 576.921 661.819C576.008 661.528 575.096 661.237 574.171 660.958Z" fill="white"/>
<path d="M602.947 672.382C602.959 673.009 602.959 673.647 602.947 674.273C602.741 691.957 595.181 708.918 581.781 721.762C581.09 722.433 580.375 723.082 579.66 723.731C578.882 724.414 578.105 725.096 577.304 725.745C564.895 735.89 549.221 742.149 532.594 743.598C515.966 745.046 499.265 741.608 484.956 733.791C484.71 733.675 484.471 733.548 484.24 733.41C484.536 734.596 484.832 735.76 485.153 736.924C485.375 737.036 485.584 737.147 485.807 737.248C500.531 744.696 517.455 747.779 534.207 746.066C550.959 744.352 566.701 737.928 579.228 727.692C580.029 727.032 580.831 726.372 581.583 725.678C582.323 725.04 583.026 724.391 583.73 723.72C597.319 710.718 605.164 693.637 605.771 675.728C605.796 675.124 605.808 674.519 605.808 673.915C604.871 673.389 603.909 672.886 602.947 672.382Z" fill="white"/>
<path d="M353.588 185.275H136.766C134.962 185.273 133.232 184.622 131.956 183.465C130.68 182.307 129.963 180.738 129.961 179.101V29.7481C129.963 28.1111 130.68 26.5418 131.956 25.3842C133.232 24.2267 134.962 23.5755 136.766 23.5736H402.904C404.708 23.5755 406.438 24.2267 407.714 25.3842C408.99 26.5418 409.707 28.1111 409.709 29.7481V134.362C409.692 147.861 403.774 160.802 393.253 170.346C382.732 179.891 368.467 185.26 353.588 185.275Z" fill="white"/>
<path d="M353.588 185.835H136.766C134.798 185.832 132.912 185.122 131.52 183.86C130.129 182.598 129.346 180.886 129.344 179.101V29.7481C129.346 27.9628 130.129 26.2512 131.52 24.9888C132.912 23.7264 134.798 23.0162 136.766 23.0141H402.904C404.872 23.0161 406.758 23.7263 408.15 24.9887C409.541 26.2512 410.324 27.9628 410.326 29.7481V134.362C410.309 148.009 404.326 161.092 393.689 170.742C383.052 180.391 368.63 185.819 353.588 185.835V185.835ZM136.766 25.252C135.452 25.2535 134.193 25.7276 133.264 26.5705C132.335 27.4134 131.812 28.5561 131.811 29.7481V179.101C131.812 180.293 132.335 181.436 133.264 182.278C134.193 183.121 135.452 183.595 136.766 183.597H353.588C367.976 183.582 381.771 178.39 391.945 169.16C402.12 159.93 407.843 147.416 407.859 134.362V29.7481C407.858 28.5561 407.335 27.4134 406.406 26.5705C405.477 25.7276 404.217 25.2535 402.904 25.252H136.766Z" fill="#CCCCCC"/>
<path d="M350.295 74.0129H189.375C187.897 74.0129 186.481 73.4805 185.436 72.5328C184.391 71.5851 183.805 70.2998 183.805 68.9596C183.805 67.6194 184.391 66.334 185.436 65.3863C186.481 64.4387 187.897 63.9063 189.375 63.9063H350.295C351.771 63.9083 353.186 64.4415 354.228 65.389C355.271 66.3365 355.857 67.6207 355.857 68.9596C355.857 70.2985 355.271 71.5827 354.228 72.5301C353.186 73.4776 351.771 74.0109 350.295 74.0129V74.0129Z" fill="#CCCCCC"/>
<path d="M350.295 108.824H189.375C187.897 108.824 186.481 108.292 185.436 107.344C184.391 106.397 183.805 105.111 183.805 103.771C183.805 102.431 184.391 101.146 185.436 100.198C186.481 99.2503 187.897 98.7179 189.375 98.7179H350.295C351.772 98.7179 353.189 99.2503 354.234 100.198C355.278 101.146 355.865 102.431 355.865 103.771C355.865 105.111 355.278 106.397 354.234 107.344C353.189 108.292 351.772 108.824 350.295 108.824Z" fill="#CCCCCC"/>
<path d="M350.295 144.631H189.375C187.897 144.631 186.481 144.099 185.436 143.151C184.391 142.203 183.805 140.918 183.805 139.578C183.805 138.238 184.391 136.952 185.436 136.005C186.481 135.057 187.897 134.525 189.375 134.525H350.295C351.772 134.525 353.189 135.057 354.234 136.005C355.278 136.952 355.865 138.238 355.865 139.578C355.865 140.918 355.278 142.203 354.234 143.151C353.189 144.099 351.772 144.631 350.295 144.631Z" fill="#CCCCCC"/>
<path d="M400.905 60.3532C419.277 60.3532 434.169 46.8427 434.169 30.1766C434.169 13.5105 419.277 -1.14441e-05 400.905 -1.14441e-05C382.534 -1.14441e-05 367.641 13.5105 367.641 30.1766C367.641 46.8427 382.534 60.3532 400.905 60.3532Z" fill="#35DDAA"/>
<path d="M396.368 45.8822C395.793 45.8822 395.227 45.7608 394.713 45.5277C394.199 45.2946 393.752 44.9561 393.408 44.5392L384.333 33.5622C384.041 33.2095 383.829 32.8082 383.709 32.3812C383.588 31.9542 383.561 31.5098 383.63 31.0734C383.699 30.6371 383.862 30.2173 384.109 29.838C384.357 29.4587 384.684 29.1273 385.073 28.8629C385.462 28.5984 385.904 28.406 386.375 28.2966C386.845 28.1872 387.335 28.163 387.816 28.2253C388.297 28.2877 388.76 28.4354 389.178 28.66C389.596 28.8846 389.962 29.1817 390.253 29.5343L396.19 36.7152L411.439 15.9653C411.983 15.2246 412.83 14.7103 413.792 14.5357C414.754 14.3611 415.754 14.5405 416.57 15.0343C417.387 15.5282 417.954 16.296 418.146 17.169C418.339 18.042 418.141 18.9486 417.597 19.6894L399.447 44.3873C399.118 44.834 398.677 45.2027 398.159 45.4626C397.641 45.7226 397.062 45.8661 396.471 45.8811C396.436 45.8817 396.402 45.8822 396.368 45.8822Z" fill="white"/>
<path d="M273.56 314.995H56.7383C41.8591 314.98 27.5941 309.611 17.0729 300.066C6.55167 290.521 0.633486 277.581 0.616699 264.082V159.467C0.618818 157.83 1.33658 156.261 2.61253 155.104C3.88849 153.946 5.61844 153.295 7.42291 153.293H273.56C275.364 153.295 277.094 153.946 278.37 155.104C279.646 156.261 280.364 157.83 280.366 159.467V308.82C280.364 310.457 279.646 312.027 278.37 313.184C277.094 314.342 275.364 314.993 273.56 314.995V314.995Z" fill="white"/>
<path d="M273.56 315.554H56.7383C41.6956 315.539 27.2739 310.111 16.6372 300.461C6.00036 290.812 0.0171031 277.729 0 264.082V159.467C0.00222971 157.682 0.785006 155.97 2.17659 154.708C3.56818 153.446 5.45493 152.735 7.42293 152.733H273.56C275.528 152.735 277.414 153.446 278.806 154.708C280.198 155.97 280.98 157.682 280.983 159.467V308.82C280.98 310.606 280.198 312.317 278.806 313.58C277.414 314.842 275.528 315.552 273.56 315.554ZM7.42293 154.971C6.10899 154.973 4.84932 155.447 3.92023 156.29C2.99113 157.133 2.46847 158.275 2.46688 159.467V264.082C2.48313 277.135 8.20622 289.65 18.3806 298.88C28.5549 308.11 42.3496 313.302 56.7383 313.316H273.56C274.874 313.315 276.133 312.841 277.062 311.998C277.992 311.155 278.514 310.012 278.516 308.82V159.467C278.514 158.275 277.991 157.133 277.062 156.29C276.133 155.447 274.874 154.973 273.56 154.971H7.42293Z" fill="#CCCCCC"/>
<path d="M220.951 203.732H60.0312C58.5539 203.732 57.137 203.2 56.0924 202.252C55.0477 201.305 54.4609 200.019 54.4609 198.679C54.4609 197.339 55.0477 196.053 56.0924 195.106C57.137 194.158 58.5539 193.626 60.0312 193.626H220.951C222.429 193.626 223.846 194.158 224.89 195.106C225.935 196.053 226.522 197.339 226.522 198.679C226.522 200.019 225.935 201.305 224.89 202.252C223.846 203.2 222.429 203.732 220.951 203.732Z" fill="#CCCCCC"/>
<path d="M220.951 238.544H60.0312C58.5539 238.544 57.137 238.011 56.0924 237.064C55.0477 236.116 54.4609 234.831 54.4609 233.491C54.4609 232.15 55.0477 230.865 56.0924 229.917C57.137 228.97 58.5539 228.437 60.0312 228.437H220.951C222.429 228.437 223.846 228.97 224.89 229.917C225.935 230.865 226.522 232.15 226.522 233.491C226.522 234.831 225.935 236.116 224.89 237.064C223.846 238.011 222.429 238.544 220.951 238.544Z" fill="#CCCCCC"/>
<path d="M220.951 274.351H60.0312C58.5539 274.351 57.137 273.818 56.0924 272.87C55.0477 271.923 54.4609 270.637 54.4609 269.297C54.4609 267.957 55.0477 266.672 56.0924 265.724C57.137 264.776 58.5539 264.244 60.0312 264.244H220.951C222.429 264.244 223.846 264.776 224.89 265.724C225.935 266.672 226.522 267.957 226.522 269.297C226.522 270.637 225.935 271.923 224.89 272.87C223.846 273.818 222.429 274.351 220.951 274.351Z" fill="#CCCCCC"/>
<path d="M273.861 191.271C292.232 191.271 307.125 177.761 307.125 161.095C307.125 144.429 292.232 130.918 273.861 130.918C255.49 130.918 240.597 144.429 240.597 161.095C240.597 177.761 255.49 191.271 273.861 191.271Z" fill="#35DDAA"/>
<path d="M269.323 176.8C268.749 176.8 268.182 176.679 267.668 176.446C267.155 176.213 266.708 175.874 266.363 175.457L257.288 164.48C256.997 164.128 256.785 163.726 256.664 163.299C256.544 162.872 256.517 162.428 256.586 161.992C256.654 161.555 256.817 161.135 257.065 160.756C257.312 160.377 257.64 160.045 258.028 159.781C258.417 159.516 258.86 159.324 259.33 159.215C259.801 159.105 260.291 159.081 260.772 159.143C261.253 159.206 261.716 159.353 262.134 159.578C262.552 159.803 262.917 160.1 263.209 160.452L269.146 167.633L284.394 146.883C284.939 146.143 285.785 145.628 286.748 145.454C287.71 145.279 288.709 145.459 289.526 145.952C290.342 146.446 290.909 147.214 291.102 148.087C291.294 148.96 291.096 149.867 290.552 150.607L272.402 175.305C272.074 175.752 271.632 176.121 271.114 176.381C270.597 176.641 270.018 176.784 269.426 176.799C269.392 176.8 269.357 176.8 269.323 176.8Z" fill="white"/>
<path d="M543.713 454.208H240.331C225.452 454.193 211.187 448.824 200.666 439.279C190.145 429.734 184.227 416.793 184.21 403.295V249.423C184.212 247.313 185.138 245.29 186.782 243.798C188.427 242.306 190.657 241.467 192.983 241.464H543.713C546.039 241.467 548.269 242.306 549.914 243.798C551.558 245.29 552.484 247.313 552.486 249.423V446.248C552.484 448.358 551.559 450.382 549.914 451.874C548.269 453.366 546.039 454.205 543.713 454.208V454.208Z" fill="white"/>
<path d="M543.714 454.767H240.331C225.289 454.752 210.867 449.324 200.23 439.674C189.593 430.025 183.61 416.942 183.593 403.295V249.423C183.596 247.165 184.586 245 186.346 243.403C188.107 241.806 190.494 240.907 192.983 240.905H543.714C546.203 240.908 548.59 241.806 550.35 243.403C552.11 245 553.1 247.165 553.103 249.423V446.248C553.1 448.507 552.11 450.672 550.35 452.269C548.59 453.866 546.203 454.765 543.714 454.767V454.767ZM192.983 243.143C191.148 243.145 189.388 243.807 188.09 244.984C186.792 246.162 186.062 247.758 186.06 249.423V403.295C186.076 416.348 191.799 428.863 201.974 438.093C212.148 447.323 225.943 452.515 240.331 452.529H543.714C545.549 452.527 547.309 451.865 548.606 450.687C549.904 449.51 550.634 447.914 550.636 446.248V249.423C550.634 247.758 549.904 246.162 548.606 244.985C547.309 243.807 545.549 243.145 543.714 243.143H192.983Z" fill="#CCCCCC"/>
<path d="M474.383 307.758H262.313C261.348 307.759 260.393 307.588 259.501 307.253C258.609 306.919 257.799 306.429 257.116 305.81C256.434 305.192 255.892 304.457 255.523 303.649C255.153 302.84 254.963 301.974 254.963 301.098C254.963 300.223 255.153 299.356 255.523 298.548C255.892 297.739 256.434 297.005 257.116 296.386C257.799 295.768 258.609 295.278 259.501 294.943C260.393 294.609 261.348 294.438 262.313 294.439H474.383C475.348 294.438 476.303 294.609 477.195 294.943C478.087 295.278 478.897 295.768 479.58 296.386C480.262 297.005 480.804 297.739 481.174 298.548C481.543 299.356 481.733 300.223 481.733 301.098C481.733 301.974 481.543 302.84 481.174 303.649C480.804 304.457 480.262 305.192 479.58 305.81C478.897 306.429 478.087 306.919 477.195 307.253C476.303 307.588 475.348 307.759 474.383 307.758Z" fill="#CCCCCC"/>
<path d="M474.383 353.635H262.313C261.348 353.636 260.393 353.464 259.501 353.13C258.609 352.796 257.799 352.306 257.116 351.687C256.434 351.069 255.892 350.334 255.523 349.526C255.153 348.717 254.963 347.85 254.963 346.975C254.963 346.1 255.153 345.233 255.523 344.425C255.892 343.616 256.434 342.882 257.116 342.263C257.799 341.645 258.609 341.154 259.501 340.82C260.393 340.486 261.348 340.314 262.313 340.316H474.383C476.33 340.316 478.197 341.017 479.574 342.266C480.95 343.515 481.724 345.209 481.724 346.975C481.724 348.741 480.95 350.435 479.574 351.684C478.197 352.933 476.33 353.635 474.383 353.635Z" fill="#CCCCCC"/>
<path d="M474.383 400.823H262.313C260.366 400.823 258.499 400.121 257.123 398.872C255.746 397.623 254.972 395.929 254.972 394.163C254.972 392.397 255.746 390.703 257.123 389.454C258.499 388.205 260.366 387.504 262.313 387.504H474.383C475.348 387.502 476.303 387.674 477.195 388.008C478.087 388.342 478.897 388.833 479.58 389.451C480.262 390.07 480.804 390.804 481.174 391.613C481.543 392.421 481.733 393.288 481.733 394.163C481.733 395.038 481.543 395.905 481.174 396.714C480.804 397.522 480.262 398.257 479.58 398.875C478.897 399.494 478.087 399.984 477.195 400.318C476.303 400.652 475.348 400.824 474.383 400.823Z" fill="#CCCCCC"/>
<path d="M544.815 291.71C568.071 291.71 586.924 274.607 586.924 253.51C586.924 232.413 568.071 215.31 544.815 215.31C521.559 215.31 502.707 232.413 502.707 253.51C502.707 274.607 521.559 291.71 544.815 291.71Z" fill="#35DDAA"/>
<path d="M539.071 273.392C538.344 273.392 537.626 273.238 536.976 272.943C536.326 272.648 535.76 272.219 535.324 271.691L523.836 257.796C523.467 257.349 523.199 256.842 523.046 256.301C522.893 255.76 522.86 255.198 522.947 254.645C523.034 254.093 523.24 253.562 523.553 253.082C523.867 252.601 524.281 252.182 524.773 251.847C525.265 251.512 525.825 251.269 526.421 251.13C527.017 250.992 527.637 250.961 528.246 251.04C528.855 251.119 529.441 251.306 529.97 251.59C530.499 251.875 530.962 252.251 531.331 252.697L538.846 261.787L558.149 235.52C558.839 234.584 559.91 233.935 561.128 233.715C562.345 233.495 563.609 233.722 564.642 234.346C565.675 234.971 566.392 235.942 566.636 237.046C566.88 238.15 566.631 239.297 565.944 240.235L542.969 271.499C542.553 272.065 541.994 272.531 541.338 272.86C540.683 273.189 539.95 273.371 539.201 273.39C539.158 273.391 539.114 273.392 539.071 273.392Z" fill="white"/>
<path d="M653.903 758.504L636.772 763.701L606.519 706.228L631.805 698.556L653.903 758.504Z" fill="#FFB6B6"/>
<path d="M663.826 772.243L608.586 785.645L608.353 785.011C606.432 779.801 606.863 777.581 609.566 772.665C610.888 770.244 612.726 768.084 614.974 766.312C617.222 764.54 619.835 763.189 622.662 762.339L622.663 762.339L630.193 752.333L651.58 753.566L656.402 752.103L663.826 772.243Z" fill="#2F2E41"/>
<path d="M696.23 773.116H678.166L669.571 709.906L696.233 709.907L696.23 773.116Z" fill="#FFB6B6"/>
<path d="M700.837 785.645L642.589 785.643V784.975C642.59 779.481 644.948 777.673 649.231 773.788C651.331 771.873 653.829 770.354 656.581 769.32C659.332 768.286 662.282 767.757 665.261 767.765H665.262L675.902 760.442L695.753 767.766L700.838 767.766L700.837 785.645Z" fill="#2F2E41"/>
<path d="M558.748 266.666C559.12 268.382 559.902 270.004 561.04 271.417C562.178 272.83 563.643 274 565.333 274.843C567.023 275.687 568.896 276.184 570.821 276.3C572.745 276.416 574.674 276.147 576.472 275.513L597.327 295.265L613.649 286.696L583.766 259.178C582.393 256.508 579.987 254.389 577.006 253.221C574.025 252.053 570.675 251.918 567.591 252.841C564.507 253.764 561.904 255.681 560.274 258.229C558.644 260.777 558.101 263.779 558.748 266.666V266.666Z" fill="#FFB6B6"/>
<path d="M693.713 365.98L703.115 357.156L648.747 311.476L594.028 267.152L578.873 286.58L636.214 335.136L693.713 365.98Z" fill="#E4E4E4"/>
<path d="M660.308 665.751C660.308 654.661 660.55 646.751 660.744 640.395C661.313 621.794 661.466 616.794 653.619 584.762L651.604 576.536L639.72 608.878C635.925 619.195 633.985 629.999 633.976 640.875L652.299 740.61H614.849L587.421 632.787L587.408 599.805C584.991 597.537 583.641 594.505 583.641 591.35C583.641 588.195 584.991 585.164 587.408 582.895L596.521 533.484L605.744 466.891H706.772C706.772 466.891 724.602 500.417 706.883 533.673L706.881 665.792L697.726 757.143H669.464L660.308 665.751Z" fill="#2F2E41"/>
<path d="M700.595 474.951L606.097 467.808L605.607 467.771L613.148 344.625C613.591 336.883 616.586 329.439 621.745 323.257C626.903 317.076 633.988 312.441 642.083 309.953V301.336C642.086 299.203 643.021 297.158 644.683 295.649C646.346 294.141 648.6 293.293 650.951 293.29H664.759C666.407 293.285 668.023 293.699 669.425 294.485C670.827 295.271 671.959 296.398 672.691 297.738L679.442 309.987L704.973 328.516C717.582 337.668 707.434 429.42 706.888 434.261L713.063 462.27C713.402 463.81 713.361 465.4 712.942 466.925C712.524 468.449 711.738 469.871 710.642 471.087C709.545 472.303 708.165 473.284 706.601 473.959C705.037 474.634 703.328 474.986 701.596 474.99C701.264 474.989 700.931 474.976 700.595 474.951Z" fill="#E4E4E4"/>
<path d="M600.523 507.466C602.017 506.359 603.225 504.969 604.062 503.393C604.9 501.817 605.346 500.093 605.37 498.344C605.394 496.594 604.995 494.861 604.2 493.266C603.406 491.672 602.236 490.255 600.772 489.115L610.148 463.121L594.125 454.099L581.453 490.977C579.505 493.334 578.578 496.257 578.847 499.193C579.117 502.129 580.564 504.873 582.914 506.906C585.265 508.938 588.356 510.118 591.601 510.221C594.846 510.324 598.021 509.344 600.523 507.466V507.466Z" fill="#FFB6B6"/>
<path d="M633.477 330.751L620.468 326.816L601.678 402.87L584.371 478.504L610.401 481.979L630.586 401.558L633.477 330.751Z" fill="#E4E4E4"/>
<path d="M647.684 285.419C664.825 285.419 678.72 272.813 678.72 257.264C678.72 241.714 664.825 229.108 647.684 229.108C630.543 229.108 616.648 241.714 616.648 257.264C616.648 272.813 630.543 285.419 647.684 285.419Z" fill="#FFB6B6"/>
<path d="M605.925 243.475C606.211 240.807 607.054 238.212 608.409 235.83C609.86 238.692 614.385 239.189 617.483 237.764C620.58 236.34 622.656 233.634 624.869 231.207C630.71 224.802 638.743 219.606 647.847 218.66C656.951 217.713 666.985 221.882 670.425 229.587C671.968 227.643 675.262 227.427 677.592 228.556C679.842 229.844 681.598 231.731 682.619 233.96C684.91 238.224 686.205 242.872 686.422 247.612C686.639 252.353 685.774 257.082 683.881 261.505C680.048 270.305 670.581 282.162 660.814 285.483C654.885 287.499 648.896 284.919 642.589 285.483C642.92 279.239 644.254 271.536 644.584 265.292C644.765 261.873 644.791 258.047 642.217 255.544C641.427 254.864 640.483 254.35 639.449 254.038C638.416 253.726 637.32 253.623 636.239 253.738C635.157 253.852 634.117 254.181 633.191 254.701C632.265 255.22 631.476 255.918 630.88 256.745C630.561 254.804 629.839 252.935 628.751 251.239C628.192 250.397 627.386 249.714 626.423 249.267C625.46 248.819 624.378 248.625 623.299 248.705C620.666 249.097 619.039 251.549 616.623 252.576C615.25 253.075 613.743 253.181 612.302 252.882C610.861 252.582 609.555 251.89 608.559 250.898C607.592 249.885 606.86 248.706 606.408 247.431C605.955 246.155 605.791 244.81 605.925 243.475V243.475Z" fill="#2F2E41"/>
<path opacity="0.1" d="M651.701 401.217L615.252 467.35H642.59L651.701 401.217Z" fill="black"/>
</g>
<defs>
<clipPath id="clip0_16_193">
<rect width="896" height="789" fill="white"/>
</clipPath>
</defs>
</svg>
