<svg width="1030" height="904" viewBox="0 0 1030 904" fill="none" xmlns="http://www.w3.org/2000/svg">
<path d="M957.276 813.534H831.575V901.34H957.276V813.534Z" fill="#35DDAA"/>
<path d="M699.154 881.025C698.026 885.672 697.502 891.091 699.845 895.017C701.14 896.983 702.845 898.495 704.784 899.397C709.772 901.761 715.14 902.714 720.478 902.185C721.501 902.243 722.522 902.043 723.478 901.599C724.433 901.155 725.302 900.476 726.03 899.604C738.416 887.189 746.793 869.887 749.69 850.737C749.924 849.748 749.88 848.693 749.564 847.738C749.156 846.999 748.585 846.412 747.916 846.046C745.16 843.955 742.19 842.312 739.08 841.161C722.064 835.841 703.37 863.657 699.154 881.025Z" fill="#2F2E41"/>
<path d="M877.603 815.907C879.89 819.122 882.708 821.72 885.875 823.534C887.464 824.424 889.199 824.868 890.95 824.832C892.7 824.796 894.422 824.281 895.985 823.326C900.666 820.099 901.992 812.601 901.618 806.095C900.927 794.061 896.18 783.216 890.724 773.386C888.997 770.276 885.176 761.019 881.822 760.904C880.229 760.849 874.271 767.843 872.652 769.175C866.737 774.038 862.64 777.518 863.871 786.853C865.244 797.266 871.816 808.409 877.603 815.907Z" fill="#2F2E41"/>
<path d="M825.745 318.181C800.565 315.817 776.514 316.693 751.289 315.126C749.17 314.994 750.191 344.374 747.995 360.328C746.866 368.527 708.897 848.873 713.61 849.846C725.711 852.912 737.953 855.107 750.269 856.421C755.265 856.953 801.834 543.971 799.603 518.535C805.7 529.362 827.175 579.354 838.034 636.858C852.361 712.731 856.579 798.55 865.485 793.737C871.218 784.205 878.997 776.755 887.979 772.196C902.698 765.567 878.844 400.598 853.641 383.819C853.331 373.137 853.007 362.192 849.682 352.29C844.992 338.324 835.74 327.173 825.745 318.181Z" fill="#2F2E41"/>
<path d="M569.296 430.785H0V566.876H569.296V430.785Z" fill="#E6E6E6"/>
<path d="M569.296 215.747H0V351.837H569.296V215.747Z" fill="#E6E6E6"/>
<path d="M569.296 0H0V136.091H569.296V0Z" fill="#E6E6E6"/>
<path d="M12.1362 121.396H557.16V14.6946H12.1362V121.396Z" fill="white"/>
<path d="M12.1362 337.617H557.16V230.916H12.1362V337.617Z" fill="white"/>
<path d="M12.1361 552.182H557.16V445.48H12.1361V552.182Z" fill="white"/>
<path d="M59.849 107.812C78.3914 107.812 93.4229 89.6124 93.4229 67.1617C93.4229 44.7111 78.3914 26.5112 59.849 26.5112C41.3067 26.5112 26.2752 44.7111 26.2752 67.1617C26.2752 89.6124 41.3067 107.812 59.849 107.812Z" fill="#35DDAA"/>
<path d="M471.493 51.255H140.134V60.0921H471.493V51.255Z" fill="#35DDAA"/>
<path d="M471.493 74.2314H140.134V83.0684H471.493V74.2314Z" fill="#35DDAA"/>
<path d="M59.849 325.326C78.3914 325.326 93.4229 307.126 93.4229 284.676C93.4229 262.225 78.3914 244.025 59.849 244.025C41.3067 244.025 26.2752 262.225 26.2752 284.676C26.2752 307.126 41.3067 325.326 59.849 325.326Z" fill="#CCCCCC"/>
<path d="M471.493 268.769H140.134V277.606H471.493V268.769Z" fill="#CCCCCC"/>
<path d="M471.493 291.745H140.134V300.583H471.493V291.745Z" fill="#CCCCCC"/>
<path d="M59.849 540.365C78.3914 540.365 93.4229 522.165 93.4229 499.715C93.4229 477.264 78.3914 459.064 59.849 459.064C41.3067 459.064 26.2752 477.264 26.2752 499.715C26.2752 522.165 41.3067 540.365 59.849 540.365Z" fill="#CCCCCC"/>
<path d="M471.493 483.808H140.134V492.645H471.493V483.808Z" fill="#CCCCCC"/>
<path d="M471.493 506.784H140.134V515.621H471.493V506.784Z" fill="#CCCCCC"/>
<path d="M819.541 85.1944C806.472 58.4579 780.617 57.2119 780.617 57.2119C780.617 57.2119 755.423 53.3109 739.261 94.0309C724.196 131.985 703.405 168.631 735.913 177.516L741.785 155.388L745.422 179.163C750.05 179.566 754.693 179.662 759.331 179.451C794.144 178.09 827.299 179.849 826.231 164.723C824.812 144.616 832.116 110.92 819.541 85.1944Z" fill="#2F2E41"/>
<path d="M771.33 176.288C771.393 179.298 771.374 182.472 770.139 185.084C767.69 190.264 761.713 191.039 758.118 195.121C754.337 199.414 753.909 206.381 753.729 212.654C753.54 219.211 753.38 225.984 755.357 232.093C756.567 235.459 758.098 238.642 759.917 241.579C762.112 245.41 764.327 249.224 766.563 253.021C767.757 255.159 769.088 257.181 770.543 259.067C774.547 264.006 780.039 266.739 785.523 268.689C789.066 269.95 792.891 270.931 796.407 269.562C798.732 268.463 800.876 266.867 802.736 264.85C805.453 262.49 807.867 259.657 809.9 256.442C812.852 251.258 813.669 244.767 814.281 238.514C816.09 220.022 816.794 201.396 816.387 182.782C816.461 180.753 816.161 178.73 815.508 176.86C813.688 172.556 808.811 171.637 806.242 167.934C804.045 164.769 803.956 160.251 803.975 156.117L804.022 145.591C804.099 144.704 803.952 143.81 803.6 143.027C803.281 142.605 802.897 142.263 802.469 142.022C802.041 141.78 801.578 141.643 801.106 141.618C795.703 140.533 790.226 140.089 784.751 140.293C780.313 140.458 771.798 140.008 767.96 143.001C764.477 145.717 768.838 153.221 769.645 157.435C770.73 163.635 771.294 169.951 771.33 176.288V176.288Z" fill="#FFB8B8"/>
<path d="M781.517 158.214C800.922 158.214 816.654 139.166 816.654 115.67C816.654 92.1744 800.922 73.1271 781.517 73.1271C762.111 73.1271 746.38 92.1744 746.38 115.67C746.38 139.166 762.111 158.214 781.517 158.214Z" fill="#FFB8B8"/>
<path d="M773.56 207.677C755.425 138.094 745.87 235.829 734.436 262.515C734.542 280.914 734.954 331.804 738.508 351.092C752.314 426.022 820.685 420.14 841.245 356.946C852.196 323.283 827.901 239.855 828.725 200.928C798.616 163.99 796.758 281.177 773.56 207.677Z" fill="#35DDAA"/>
<path d="M753.652 183.81C714.357 206.934 733.104 269.062 718.861 309.722C707.485 365.505 678.554 383.047 744.702 384.346C758.954 333.357 745.033 277.97 764.466 226.051C765.804 205.716 771.564 198.069 771.054 180.849C767.244 173.702 757.373 181.595 753.652 183.81Z" fill="#575A88"/>
<path d="M813.763 82.6176L788.219 66.416L752.944 73.0439L745.647 112.073L763.814 111.226L768.889 96.8874V110.989L777.271 110.6L782.139 87.7718L785.178 112.073L814.98 111.336L813.763 82.6176Z" fill="#2F2E41"/>
<path d="M797.964 203.394C818.189 200.536 798.47 171.127 814.524 171.627C862.593 161.837 876.974 197.886 858.693 248.199C841.935 288.499 901.214 345.109 868.098 367.659C856.345 372.882 839.516 389.314 828.03 382.16C809.589 326.04 808.923 261.92 797.964 203.394Z" fill="#575A88"/>
<path d="M854.257 363.602C847.215 367.68 841.644 374.164 836.931 381.698C835.933 383.292 837.271 386.267 840.261 386.218C843.044 386.173 844.706 381.853 847.489 381.808C848.339 390.813 849.879 399.702 852.089 408.362C857.64 402.459 860.964 394.151 864.144 386.077L870.431 370.118C872.739 364.259 875.047 358.397 877.128 352.414C877.693 351.015 878.043 349.503 878.159 347.952C878.433 337.656 870.049 337.594 866.433 344.037C862.479 351.085 861.247 359.554 854.257 363.602Z" fill="#FFB8B8"/>
<path d="M855.703 186.597C861.078 193.36 866.491 200.18 870.663 208.089C874.836 215.999 896.42 287.135 897.295 288.643C900.411 294.211 896.771 308.605 896.587 309.429C896.227 312.014 891.724 337.824 890.596 343.524C889.806 347.512 889.816 351.665 889.3 355.718C888.783 359.772 887.621 363.94 885.042 366.599C884.713 366.981 884.31 367.255 883.869 367.394C882.439 367.732 881.465 365.729 880.964 364.072C879.405 358.912 877.831 353.653 875.083 349.282C872.334 344.91 868.168 341.487 863.631 341.504C863.256 340.417 863.1 339.238 863.178 338.063C863.255 336.889 863.563 335.754 864.075 334.753C864.984 332.677 866.317 330.918 867.32 328.906C868.59 326.164 869.454 323.175 869.873 320.072C872.113 305.82 869.858 291.068 863.552 278.731C862.086 275.805 860.313 273.122 858.278 270.749C856.062 268.235 853.47 266.214 851.425 263.497C848.271 258.977 846.364 253.375 845.972 247.477C845.594 241.618 845.723 235.728 846.356 229.902C847.276 218.339 848.458 206.76 849.823 195.262C849.928 193.764 850.248 192.3 850.769 190.935C851.84 188.517 853.651 187.764 855.703 186.597Z" fill="#575A88"/>
<path d="M738.39 346.347C734.774 339.904 726.391 339.966 726.664 350.262C726.78 351.813 727.13 353.326 727.695 354.724C729.776 360.707 732.085 366.569 734.393 372.428L740.679 388.387C743.859 396.461 747.183 404.77 752.735 410.672C754.944 402.012 756.484 393.123 757.334 384.118C760.117 384.163 761.779 388.483 764.562 388.528C767.552 388.577 768.891 385.603 767.893 384.008C763.179 376.474 757.608 369.99 750.566 365.912C743.576 361.864 742.344 353.395 738.39 346.347Z" fill="#FFB8B8"/>
<path d="M754.054 193.245C754.575 194.61 754.895 196.074 755.001 197.572C756.365 209.07 757.547 220.649 758.467 232.212C759.1 238.038 759.229 243.928 758.852 249.787C758.459 255.685 756.552 261.287 753.399 265.807C751.353 268.524 748.761 270.545 746.545 273.059C744.51 275.432 742.737 278.115 741.271 281.041C734.965 293.378 732.71 308.13 734.951 322.382C735.369 325.484 736.233 328.474 737.503 331.216C738.506 333.227 739.839 334.987 740.748 337.063C741.261 338.064 741.568 339.199 741.646 340.373C741.723 341.548 741.568 342.727 741.192 343.814C736.655 343.797 732.489 347.22 729.741 351.591C726.992 355.963 725.418 361.222 723.859 366.381C723.358 368.038 722.384 370.042 720.954 369.704C720.513 369.564 720.11 369.291 719.781 368.909C717.203 366.25 716.04 362.082 715.524 358.028C715.007 353.975 715.017 349.822 714.227 345.834C713.099 340.134 708.597 314.324 708.236 311.739C708.052 310.915 704.412 296.521 707.528 290.953C708.404 289.445 729.987 218.309 734.16 210.399C738.333 202.49 743.745 195.67 749.121 188.907C751.172 190.074 752.983 190.827 754.054 193.245Z" fill="#575A88"/>
</svg>
